<svg viewBox="0 0 512 383" xmlns="http://www.w3.org/2000/svg">
  <path d="M 255.98828,129.48828 A 126.51147,126.51147 0 0 0 129.47656,256 a 126.51147,126.51147 0 0 0 6.31836,38.57227 h 53.34766 L 256,227.7168 l 66.85742,66.85547 h 53.32227 A 126.51147,126.51147 0 0 0 382.5,256 126.51147,126.51147 0 0 0 255.98828,129.48828 Z"/>
  <path d="m 431.7207,236 a 20,20 0 0 0 -20,20 20,20 0 0 0 20,20 h 60.25391 a 20,20 0 0 0 20,-20 20,20 0 0 0 -20,-20 z"/>
  <path d="M 20,236 A 20,20 0 0 0 0,256 20,20 0 0 0 20,276 H 80.253906 A 20,20 0 0 0 100.25391,256 20,20 0 0 0 80.253906,236 Z"/>
  <path d="m 255.98828,0 a 20,20 0 0 0 -20,20 v 60.253906 a 20,20 0 0 0 20,20.000004 20,20 0 0 0 20,-20.000004 V 20 a 20,20 0 0 0 -20,-20 z"/>
  <path d="m 417.42969,69.681641 a 20,20 0 0 0 -8.96485,5.175781 l -42.60742,42.607418 a 20,20 0 0 0 0,28.28321 20,20 0 0 0 28.28516,0 l 42.60547,-42.60547 a 20,20 0 0 0 0,-28.285158 20,20 0 0 0 -19.31836,-5.175781 z"/>
  <path d="m 84.222656,69.681641 a 20,20 0 0 0 -8.964844,5.175781 20,20 0 0 0 0,28.285158 l 42.605468,42.60547 a 20,20 0 0 0 28.28516,0 20,20 0 0 0 0,-28.28321 L 103.54297,74.857422 A 20,20 0 0 0 84.222656,69.681641 Z"/>
  <path d="m 256,284.28321 -58.57422,58.57226 H 20.132814 a 20,20 0 0 0 -20.00000025,20 20,20 0 0 0 20.00000025,20 H 213.99414 L 256,340.84961 l 42.00391,42.00586 h 193.86328 a 20,20 0 0 0 20,-20 20,20 0 0 0 -20,-20 H 314.57227 Z"/>
</svg>
