<svg viewBox="0 0 512 383" xmlns="http://www.w3.org/2000/svg">
  <path d="M 255.98828,133.70215 A 126.51147,126.51147 0 0 0 131.25195,240.21387 h 249.625 A 126.51147,126.51147 0 0 0 255.98828,133.70215 Z"/>
  <path d="m 255.98828,4.21387 a 20,20 0 0 0 -20,20 v 60.25391 a 20,20 0 0 0 20,20 20,20 0 0 0 20,-20 V 24.21387 a 20,20 0 0 0 -20,-20 z"/>
  <path d="m 417.42969,73.89551 a 20,20 0 0 0 -8.96485,5.17578 l -42.60742,42.60742 a 20,20 0 0 0 0,28.28321 20,20 0 0 0 28.28516,0 l 42.60547,-42.60547 a 20,20 0 0 0 0,-28.28516 20,20 0 0 0 -19.31836,-5.17578 z"/>
  <path d="m 84.222656,73.89551 a 20,20 0 0 0 -8.964844,5.17578 20,20 0 0 0 0,28.28516 l 42.605468,42.60547 a 20,20 0 0 0 28.28516,0 20,20 0 0 0 0,-28.28321 L 103.54297,79.07129 A 20,20 0 0 0 84.222656,73.89551 Z"/>
  <path d="M 256.01172,378.78613 197.4375,320.21387 H 20.14454 a 20,20 0 0 1 -20,-20 20,20 0 0 1 20,-20 h 193.86132 l 42.00586,42.00586 42.00391,-42.00586 h 193.86328 a 20,20 0 0 1 20,20 20,20 0 0 1 -20,20 H 314.58399 Z"/>
</svg>
